HIERARCHY
ROOT Hips
{
   OFFSET 0.00000 0.00000 0.00000
   CHANNELS 6 Xposition Yposition Zposition Zrotation Xrotation Yrotation
   JOINT Spine
   {
      OFFSET 0.000000 11.890501 0.000000
      CHANNELS 3 Zrotation Xrotation Yrotation
      JOINT Spine1
      {
         OFFSET -0.000000 25.657401 0.127660
         CHANNELS 3 Zrotation Xrotation Yrotation
         JOINT HEad
         {
            OFFSET 0.000000 8.734161 0.011340
            CHANNELS 3 Zrotation Xrotation Yrotation
            End Site
            {
               OFFSET -0.290000 12.774200 2.513950
            }
         }
         JOINT LeftShoulder1
         {
            OFFSET 8.990000 -0.362250 -0.220000
            CHANNELS 3 Zrotation Xrotation Yrotation
            JOINT LeftArm
            {
               OFFSET 10.282700 -0.003380 0.322120
               CHANNELS 3 Zrotation Xrotation Yrotation
               JOINT LeftForeArm
               {
                  OFFSET 32.766900 0.099140 -1.424340
                  CHANNELS 3 Zrotation Xrotation Yrotation
                  JOINT LeftHand
                  {
                     OFFSET 27.564301 0.085360 1.022160
                     CHANNELS 3 Zrotation Xrotation Yrotation
                     End Site
                     {
                        OFFSET 16.744301 -0.600000 1.502910
                     }
                  }
               }
            }
         }
         JOINT RightShoulder
         {
            OFFSET -8.990000 -0.362250 -0.220000
            CHANNELS 3 Zrotation Xrotation Yrotation
            JOINT RightArm
            {
               OFFSET -10.282700 -0.003380 0.322120
               CHANNELS 3 Zrotation Xrotation Yrotation
               JOINT RightForeArm
               {
                  OFFSET -32.897098 0.099140 -1.424340
                  CHANNELS 3 Zrotation Xrotation Yrotation
                  JOINT RightHand
                  {
                     OFFSET -27.492101 0.085360 1.022160
                     CHANNELS 3 Zrotation Xrotation Yrotation
                     End Site
                     {
                        OFFSET -16.631201 -0.600000 1.502910
                     }
                  }
               }
            }
         }
      }
   }
   JOINT LeftUpLeg
   {
      OFFSET 8.945800 -8.667070 0.101650
      CHANNELS 3 Zrotation Xrotation Yrotation
      JOINT LeftLeg
      {
         OFFSET 0.000000 -44.422697 1.372700
         CHANNELS 3 Zrotation Xrotation Yrotation
         JOINT LeftFoot
         {
            OFFSET -0.253550 -42.092399 -1.460590
            CHANNELS 3 Zrotation Xrotation Yrotation
            JOINT LeftToes
            {
               OFFSET -0.040000 -4.415090 8.499099
               CHANNELS 3 Zrotation Xrotation Yrotation
               End Site
               {
                  OFFSET 0.080000 -0.047450 9.779790
               }
            }
         }
      }
   }
   JOINT RightUpLeg
   {
      OFFSET -8.945800 -8.667070 0.101650
      CHANNELS 3 Zrotation Xrotation Yrotation
      JOINT RightLeg
      {
         OFFSET 0.000000 -44.422697 1.372700
         CHANNELS 3 Zrotation Xrotation Yrotation
         JOINT RightFoot
         {
            OFFSET 0.253550 -42.092399 -1.460590
            CHANNELS 3 Zrotation Xrotation Yrotation
            JOINT RightToes
            {
               OFFSET 0.040000 -4.415090 8.499099
               CHANNELS 3 Zrotation Xrotation Yrotation
               End Site
               {
                  OFFSET -0.080000 -0.137450 9.779790
               }
            }
         }
      }
   }
}
MOTION
Frames: 13
Frame Time: 0.016670
-61.570181 93.211154 -130.827644 -8.282525 -13.903543 -17.879873 -13.391515 22.903709 22.754050 -0.988390 33.142421 -3.114967 0.667140 3.935725 -2.569892 -4.143538 37.380020 -3.696906 -94.541272 -51.215282 -147.105035 359.497199 4.530970 -60.913123 -42.813214 -34.559196 -66.687146 -33.102505 44.358875 48.345889 70.043897 105.265653 226.083633 20.487069 176.309176 52.604997 -22.025955 -15.574428 41.944858 27.155026 -19.719738 -112.143940 -9.104827 -23.757442 105.183745 -40.440942 10.495467 59.098314 9.919790 -4.699937 -36.564615 -20.547308 1.377528 37.247921 29.389327 10.787927 -25.297132 -42.677033 -6.562587 36.818340 21.974511 -20.806684 -49.893647
-60.602092 93.504294 -130.507048 -9.044815 -13.700656 -24.070760 -12.684509 21.941260 16.867905 -2.591019 31.598439 -1.598667 1.797833 -0.950428 5.975017 -9.828600 39.798751 4.996296 -97.645962 -49.176631 -147.871342 351.886374 3.136278 -57.120691 -41.177585 -33.971708 -64.968309 -36.188005 42.853949 60.042281 78.970073 106.739970 221.874133 12.942657 175.594028 53.057371 -27.338990 -10.139057 27.050962 27.890611 -18.108903 -116.406163 -10.129113 -24.572832 109.411605 -42.553489 10.712753 58.326626 10.157066 -6.485375 -34.454978 -21.339087 -0.203289 34.486783 27.898565 11.314181 -21.498989 -43.082962 -6.225707 37.489395 23.076962 -19.773130 -46.516833
-59.462952 93.650397 -129.925688 -9.489992 -13.641204 -30.057050 -13.687369 22.403075 10.280158 -4.165169 32.886821 0.079811 2.347454 -5.849911 14.802333 -5.783495 40.863007 0.957317 -115.363753 -55.346054 -162.242647 346.852169 -1.635624 -57.825727 -37.262736 -36.754641 -61.516898 -35.372867 46.735627 63.195629 78.076446 112.696277 217.685068 8.517376 183.324586 59.524525 -20.419407 -14.654285 35.618596 28.330346 -16.243844 -120.773085 -9.372195 -26.492152 115.071407 -43.498080 9.657554 57.367736 9.757193 -9.060302 -32.924374 -22.213513 -1.553580 31.304239 25.577327 11.792492 -18.413985 -43.498647 -5.569729 38.707543 24.143283 -19.606079 -41.226318
-58.168644 93.671435 -128.994539 -10.334849 -12.904346 -37.492363 -14.173799 22.655652 1.300094 -5.050179 29.792363 1.964759 2.541800 -9.444319 23.663546 -9.968497 38.522520 12.691372 -111.737435 -61.147091 -152.117137 347.533248 -14.463313 -54.349185 -47.867844 -39.875973 -37.421585 -43.000098 45.050985 74.761072 83.156474 112.854731 215.065144 5.716552 190.123247 65.779086 -24.204840 -15.898479 38.388672 29.238995 -13.559134 -124.222495 -7.834119 -28.344074 121.088285 -43.324436 7.123540 56.479825 8.611433 -12.733315 -31.524844 -22.279758 -3.004588 27.359371 22.644597 11.899943 -13.706506 -43.951485 -4.722687 40.549733 16.827271 -18.750176 -55.262787
-56.797384 93.516654 -127.862032 -12.212376 -12.796861 -45.547977 -12.318729 23.580917 -6.514841 -6.436231 30.099841 4.502850 2.184205 -12.299242 31.343274 -11.333200 39.700341 20.962511 -102.481026 -67.642389 -140.218156 343.757192 -25.752991 -48.741862 -41.048614 -70.618221 -46.720731 -42.703340 47.313448 73.027754 79.636099 118.780063 214.123657 3.285260 199.442371 70.093341 -21.910871 -16.793270 44.201077 30.450472 -9.041573 -127.354573 -5.012779 -29.743657 126.598212 -42.476099 5.451826 56.272231 7.763148 -15.366351 -30.037878 -22.495500 -3.352108 22.894999 21.390564 11.816302 -9.494620 -43.915432 -5.376300 41.221192 18.976542 -21.336872 -43.173629
-55.419406 93.244055 -126.558550 -14.241110 -10.878558 -51.970930 -12.929919 24.331012 -12.626467 -8.599049 26.014840 7.965942 2.418889 -13.262065 37.569678 -8.837083 41.346000 16.102130 -101.992865 -77.707390 -132.157849 336.940608 -40.230542 -44.613447 -50.149295 -69.955515 -30.941355 -50.130874 43.902151 80.071790 79.266299 121.525308 210.439330 3.135382 204.136118 70.924138 -24.447100 -16.234627 42.894455 31.717117 -5.525801 -130.459386 -1.686697 -29.480340 131.777695 -41.006297 3.711414 56.185778 6.951113 -17.597361 -28.442982 -21.805983 -3.425879 18.174968 20.707802 10.221492 -5.361553 -43.395426 -5.173236 42.627658 16.101555 -22.471812 -43.648300
-54.195604 92.965735 -125.107735 -16.284337 -10.904797 -56.239412 -12.312758 24.343067 -16.739641 -7.140956 22.588496 4.150116 2.174208 -13.750264 42.518867 -6.868109 38.465761 13.594087 -80.587196 -76.079134 -111.417133 324.651677 -53.621250 -47.689334 -35.671028 -63.979038 -44.637711 -54.030427 43.345972 86.624086 80.463986 125.155184 209.926370 4.800995 211.799289 70.728132 -22.200152 -15.800504 45.438339 31.992890 -1.503701 -134.000880 1.263941 -29.814462 135.707294 -39.497375 3.091365 55.794719 6.552544 -18.955693 -27.408060 -22.045262 -1.882656 13.740288 19.989104 9.705302 -1.843908 -42.298819 -4.345821 43.979848 15.566800 -23.154869 -39.332805
-53.100633 92.649268 -123.806904 -17.003496 -11.503124 -58.794630 -10.175625 22.144943 -19.395386 -7.455154 21.996486 3.972599 1.496407 -13.656143 46.142859 -6.263075 35.514665 13.216701 -65.736049 -71.181260 -93.447377 318.775584 -67.192396 -51.689034 -45.188549 -73.013554 -37.976948 -56.816413 48.387092 91.118651 82.432952 128.009124 207.871548 3.462127 220.348268 72.278305 -23.636460 -16.363998 48.021687 31.107335 0.230512 -135.995473 3.061051 -30.602570 138.135166 -37.696599 3.524327 55.567561 6.447175 -19.429759 -26.632907 -23.174871 -0.886195 9.358670 18.865708 9.677608 0.986977 -40.911747 -3.425481 44.822474 13.946976 -23.319449 -38.650787
-52.009052 92.589577 -122.409895 -17.351937 -8.221550 -62.366929 -6.586415 23.254972 -17.482025 -6.345404 21.321296 3.127274 -0.130778 -13.487604 48.609394 -3.660333 33.275944 12.735977 -52.101977 -67.239415 -82.711426 312.131066 -79.371914 -56.723307 -33.692661 -59.850701 -36.324585 -58.324071 55.339996 94.156596 84.363976 130.278878 203.664111 2.444990 230.438917 78.292819 -22.639888 -17.371635 54.485030 32.936921 1.005363 -136.572829 4.187181 -30.005246 139.719661 -35.475255 3.902434 55.343028 6.344730 -19.639348 -26.117438 -20.994909 -2.677171 5.407744 18.207372 9.307170 3.755941 -39.136526 -2.209681 46.221768 12.969264 -22.639217 -36.775852
-50.904116 92.883795 -121.133116 -17.498337 -4.269141 -62.586246 1.132710 23.417293 -9.256832 -3.611617 21.300946 1.757334 -1.769424 -16.083436 49.093293 2.866577 33.272713 10.261768 -35.757055 -59.230936 -70.710619 305.127418 -86.105770 -56.023209 -41.429216 -52.918499 -24.705436 -56.533961 62.055124 98.372845 88.827771 134.504538 201.730976 1.646390 237.175887 79.518114 -23.811255 -18.662845 54.890433 35.556107 0.408415 -136.472480 5.029665 -28.714416 140.008687 -33.362899 4.959913 54.845849 6.342157 -19.140155 -26.115648 -17.869486 -4.021009 1.689080 16.935627 9.390226 5.942606 -37.402594 -0.539548 47.352482 11.844473 -21.333307 -36.125509
-49.892291 93.210476 -119.677256 -16.899911 -5.522372 -65.751294 -6.220649 20.451519 0.300914 -1.962307 19.395727 -4.800767 -2.205988 -18.889648 47.546641 6.992168 27.405195 1.769172 -25.593544 -58.741512 -60.918409 299.847108 -92.038322 -61.193461 -28.831410 -50.877847 -33.172303 -54.625473 66.180414 101.761137 91.030159 136.617908 200.476379 2.206644 243.866030 81.388247 -22.993779 -19.043590 55.582334 33.153369 1.448135 -135.770582 3.820494 -29.858968 139.058649 -31.826455 7.690297 54.532924 6.487109 -17.387718 -26.264876 -19.474466 -4.987364 -0.320179 15.518350 10.141336 6.967702 -35.404289 0.414240 48.210644 10.691450 -20.145677 -35.446083
-49.087190 93.573550 -118.276795 -15.038429 -6.632658 -66.239755 -12.369555 20.136771 12.709029 1.494689 16.830764 -14.315124 -2.294343 -21.219002 44.151774 11.888192 24.177186 -6.704407 -15.956428 -53.742896 -47.722183 296.124873 -96.429335 -68.699463 -40.554306 -47.022396 -14.386644 -51.767394 70.966868 102.701641 94.453211 138.295949 199.274348 2.864376 245.702368 80.061223 -23.621801 -19.979108 51.886201 29.956919 0.331293 -133.888715 1.933194 -30.193254 137.544055 -30.322919 9.706881 53.874319 5.982514 -16.728897 -26.349709 -21.705025 -6.149326 -1.530155 13.825722 9.923713 6.804265 -33.157618 0.325461 48.505169 9.298217 -19.480717 -35.370377
-48.344936 93.959826 -117.050398 -14.296229 -8.270372 -64.927949 -16.817947 19.192688 27.202350 5.031419 14.820162 -23.823485 -4.945734 -19.225905 39.033080 17.189272 23.536183 -13.262620 -6.074517 -47.766033 -37.349117 298.982105 -92.768271 -71.758562 -31.962748 -45.501166 -22.320000 -49.249834 75.553907 101.573949 95.951058 139.141841 197.725206 5.280877 245.471862 84.513776 -22.532014 -20.299660 54.968659 27.233144 -0.862439 -131.404534 -0.641555 -30.611149 135.623938 -28.991189 11.481528 53.413561 4.869410 -16.978025 -26.163453 -23.666804 -6.087161 -1.030023 12.127971 12.046228 6.806928 -39.408638 -1.584319 48.741552 16.328146 -21.985570 -36.315228
